HIERARCHY
ROOT Hips
{
    OFFSET   0.000000   0.000000   0.000000
    CHANNELS 6 Xposition Yposition Zposition Zrotation Xrotation Yrotation
    JOINT Chest
    {
        OFFSET   0.000000   8.007230   0.000000
        CHANNELS 3 Zrotation Xrotation Yrotation
        JOINT Chest2
        {
            OFFSET   0.000000  22.077100   0.000000
            CHANNELS 3 Zrotation Xrotation Yrotation
            JOINT Neck
            {
                OFFSET   0.000000  23.254800   0.000000
                CHANNELS 3 Zrotation Xrotation Yrotation
                JOINT Head
                {
                    OFFSET   0.000010  14.370000   1.956600
                    CHANNELS 3 Zrotation Xrotation Yrotation
                    End Site
                    {
                        OFFSET   0.000000  19.566000   0.000000
                    }
                }
            }
            JOINT LeftCollar
            {
                OFFSET   3.911900  19.017000  -0.467062
                CHANNELS 3 Zrotation Xrotation Yrotation
                JOINT LeftShoulder
                {
                    OFFSET  10.383700   0.000000   0.000000
                    CHANNELS 3 Zrotation Xrotation Yrotation
                    JOINT LeftElbow
                    {
                        OFFSET  26.662100   0.001193   0.000835
                        CHANNELS 3 Zrotation Xrotation Yrotation
                        JOINT LeftWrist
                        {
                            OFFSET  28.869000  -0.000058  -0.000075
                            CHANNELS 3 Zrotation Xrotation Yrotation
                            JOINT LeftFinger0
                            {
                                OFFSET   2.044660  -2.323460   3.252850
                                CHANNELS 3 Zrotation Xrotation Yrotation
                                JOINT LeftFinger01
                                {
                                    OFFSET   3.088130   0.000000   0.000000
                                    CHANNELS 3 Zrotation Xrotation Yrotation
                                    JOINT LeftFinger02
                                    {
                                        OFFSET   2.639450   0.000000   0.000000
                                        CHANNELS 3 Zrotation Xrotation Yrotation
                                        End Site
                                        {
                                            OFFSET   2.582190   0.000000   0.000000
                                        }
                                    }
                                }
                            }
                            JOINT LeftFinger1
                            {
                                OFFSET   8.364480   0.000000   3.252850
                                CHANNELS 3 Zrotation Xrotation Yrotation
                                JOINT LeftFinger11
                                {
                                    OFFSET   4.646920   0.000000   0.000000
                                    CHANNELS 3 Zrotation Xrotation Yrotation
                                    JOINT LeftFinger12
                                    {
                                        OFFSET   2.323460   0.000000   0.000000
                                        CHANNELS 3 Zrotation Xrotation Yrotation
                                        End Site
                                        {
                                            OFFSET   2.273050   0.000000   0.000000
                                        }
                                    }
                                }
                            }
                            JOINT LeftFinger2
                            {
                                OFFSET   8.364490   0.000016   1.078090
                                CHANNELS 3 Zrotation Xrotation Yrotation
                                JOINT LeftFinger21
                                {
                                    OFFSET   5.111620   0.000000   0.000000
                                    CHANNELS 3 Zrotation Xrotation Yrotation
                                    JOINT LeftFinger22
                                    {
                                        OFFSET   2.788150   0.000012   0.000000
                                        CHANNELS 3 Zrotation Xrotation Yrotation
                                        End Site
                                        {
                                            OFFSET   2.727660   0.000000   0.000000
                                        }
                                    }
                                }
                            }
                            JOINT LeftFinger3
                            {
                                OFFSET   7.899780   0.000014  -1.078090
                                CHANNELS 3 Zrotation Xrotation Yrotation
                                JOINT LeftFinger31
                                {
                                    OFFSET   4.646930   0.000000   0.000000
                                    CHANNELS 3 Zrotation Xrotation Yrotation
                                    JOINT LeftFinger32
                                    {
                                        OFFSET   2.323470   0.000000   0.000000
                                        CHANNELS 3 Zrotation Xrotation Yrotation
                                        End Site
                                        {
                                            OFFSET   2.273050   0.000000   0.000000
                                        }
                                    }
                                }
                            }
                            JOINT LeftFinger4
                            {
                                OFFSET   7.435090   0.000000  -3.252850
                                CHANNELS 3 Zrotation Xrotation Yrotation
                                JOINT LeftFinger41
                                {
                                    OFFSET   3.717550   0.000000   0.000000
                                    CHANNELS 3 Zrotation Xrotation Yrotation
                                    JOINT LeftFinger42
                                    {
                                        OFFSET   1.858770   0.000000   0.000000
                                        CHANNELS 3 Zrotation Xrotation Yrotation
                                        End Site
                                        {
                                            OFFSET   1.818440   0.000000   0.000000
                                        }
                                    }
                                }
                            }
                        }
                    }
                }
            }
            JOINT RightCollar
            {
                OFFSET  -3.911900  19.017000  -0.467063
                CHANNELS 3 Zrotation Xrotation Yrotation
                JOINT RightShoulder
                {
                    OFFSET -10.383700   0.000023   0.000000
                    CHANNELS 3 Zrotation Xrotation Yrotation
                    JOINT RightElbow
                    {
                        OFFSET -26.662100   0.001246   0.001011
                        CHANNELS 3 Zrotation Xrotation Yrotation
                        JOINT RightWrist
                        {
                            OFFSET -28.869000  -0.000026  -0.000078
                            CHANNELS 3 Zrotation Xrotation Yrotation
                            JOINT RightFinger0
                            {
                                OFFSET  -2.044660  -2.323490   3.252850
                                CHANNELS 3 Zrotation Xrotation Yrotation
                                JOINT RightFinger01
                                {
                                    OFFSET  -3.088130   0.000000   0.000000
                                    CHANNELS 3 Zrotation Xrotation Yrotation
                                    JOINT RightFinger02
                                    {
                                        OFFSET  -2.639460   0.000000   0.000000
                                        CHANNELS 3 Zrotation Xrotation Yrotation
                                        End Site
                                        {
                                            OFFSET  -2.582190   0.000000   0.000000
                                        }
                                    }
                                }
                            }
                            JOINT RightFinger1
                            {
                                OFFSET  -8.364480   0.000000   3.252850
                                CHANNELS 3 Zrotation Xrotation Yrotation
                                JOINT RightFinger11
                                {
                                    OFFSET  -4.646920   0.000000   0.000000
                                    CHANNELS 3 Zrotation Xrotation Yrotation
                                    JOINT RightFinger12
                                    {
                                        OFFSET  -2.323470   0.000000   0.000000
                                        CHANNELS 3 Zrotation Xrotation Yrotation
                                        End Site
                                        {
                                            OFFSET  -2.273050   0.000000   0.000000
                                        }
                                    }
                                }
                            }
                            JOINT RightFinger2
                            {
                                OFFSET  -8.364480   0.000000   1.078090
                                CHANNELS 3 Zrotation Xrotation Yrotation
                                JOINT RightFinger21
                                {
                                    OFFSET  -5.111620   0.000000   0.000000
                                    CHANNELS 3 Zrotation Xrotation Yrotation
                                    JOINT RightFinger22
                                    {
                                        OFFSET  -2.788160   0.000000   0.000000
                                        CHANNELS 3 Zrotation Xrotation Yrotation
                                        End Site
                                        {
                                            OFFSET  -2.727660   0.000000   0.000000
                                        }
                                    }
                                }
                            }
                            JOINT RightFinger3
                            {
                                OFFSET  -7.899780   0.000000  -1.078090
                                CHANNELS 3 Zrotation Xrotation Yrotation
                                JOINT RightFinger31
                                {
                                    OFFSET  -4.646930   0.000000   0.000000
                                    CHANNELS 3 Zrotation Xrotation Yrotation
                                    JOINT RightFinger32
                                    {
                                        OFFSET  -2.323470   0.000000   0.000000
                                        CHANNELS 3 Zrotation Xrotation Yrotation
                                        End Site
                                        {
                                            OFFSET  -2.273050   0.000000   0.000000
                                        }
                                    }
                                }
                            }
                            JOINT RightFinger4
                            {
                                OFFSET  -7.435090   0.000000  -3.252850
                                CHANNELS 3 Zrotation Xrotation Yrotation
                                JOINT RightFinger41
                                {
                                    OFFSET  -3.717550   0.000000   0.000000
                                    CHANNELS 3 Zrotation Xrotation Yrotation
                                    JOINT RightFinger42
                                    {
                                        OFFSET  -1.858760   0.000000   0.000000
                                        CHANNELS 3 Zrotation Xrotation Yrotation
                                        End Site
                                        {
                                            OFFSET  -1.818440   0.000000   0.000000
                                        }
                                    }
                                }
                            }
                        }
                    }
                }
            }
        }
    }
    JOINT LeftHip
    {
        OFFSET   9.783010   0.000000   0.000000
        CHANNELS 3 Zrotation Xrotation Yrotation
        JOINT LeftKnee
        {
            OFFSET   0.000073 -41.789100   0.001749
            CHANNELS 3 Zrotation Xrotation Yrotation
            JOINT LeftAnkle
            {
                OFFSET   0.000111 -41.133200  -0.000179
                CHANNELS 3 Zrotation Xrotation Yrotation
                JOINT LeftToe
                {
                    OFFSET   0.000000  -6.358960  14.674500
                    CHANNELS 3 Zrotation Xrotation Yrotation
                    End Site
                    {
                        OFFSET   0.000000   0.000000   3.913200
                    }
                }
            }
        }
    }
    JOINT RightHip
    {
        OFFSET  -9.783010   0.000000   0.000000
        CHANNELS 3 Zrotation Xrotation Yrotation
        JOINT RightKnee
        {
            OFFSET   0.000424 -41.789200   0.005205
            CHANNELS 3 Zrotation Xrotation Yrotation
            JOINT RightAnkle
            {
                OFFSET   0.000000 -41.133200  -0.000155
                CHANNELS 3 Zrotation Xrotation Yrotation
                JOINT RightToe
                {
                    OFFSET   0.000000  -6.358960  14.674500
                    CHANNELS 3 Zrotation Xrotation Yrotation
                    End Site
                    {
                        OFFSET   0.000000   0.000000   3.913200
                    }
                }
            }
        }
    }
}
MOTION
Frames: 4
Frame Time:   0.016667
  0.047541  89.511000   3.137610  -3.083290  -7.466450  -4.689370   0.355114   4.939770  -0.327555   0.742855   9.877300  -0.689818   1.253350  -0.643493   0.020362   2.059900  -1.303090   6.599680  -4.821040  -0.624708   2.480650 -72.851600  10.148900   2.054100  -1.365290  -3.075810 -18.021800  12.285400  -3.013630  -2.485000  41.664200  34.957200 -72.567400 -26.335100  -0.000319   0.011312  -8.168990  -0.003558  -0.014476 -26.603700   5.556470 -10.935000 -22.202000   0.009690   0.000188 -15.541400  -0.006395  -0.000335 -27.585100  -0.253356   0.486260 -29.617100  -0.003341   0.000297 -19.725000  -0.002601   0.002685 -27.892400  -0.255936   0.484907 -31.299000   0.000539  -0.000309 -20.845100  -0.002000  -0.008311 -28.716400  -0.262959   0.481127 -43.076400   0.000000  -0.002062 -28.688900  -0.003208   0.002919  10.355700   1.553420   8.812160  67.370300  10.904000  -9.551920  -2.330120  -3.143870  16.091800  -9.687040  -7.171340   6.485110 -51.805400  42.533400  85.324100  21.030000   0.003139  -0.001738   5.515000  -0.002212  -0.000000  44.370100  11.487500  11.504200  37.252800  -0.004166   0.002277  27.192800   0.004582   0.004833  34.852400   4.763030   6.801230  52.704100  -0.003153   0.001356  35.100900  -0.004847   0.007544  33.993300   3.239740   4.791550  51.193400  -0.001552  -0.001521  34.094800  -0.002939   0.006280  45.061200  -2.696160  -2.686620  67.686800   0.000506   0.002493  45.079400  -0.000174  -0.000509   2.366510  11.276300   0.560038   1.513860   0.002083  13.099100  -1.639200  -3.953520   0.806630   0.000000   0.000000  -0.000000   1.523530  10.026400  -0.466549   0.705426   0.365847 -13.675700   0.196560  -3.254330   4.284580   0.000000   0.000000   0.000000
  0.034369  89.511000   3.134120  -3.096660  -7.473360  -4.699910   0.346781   4.954350  -0.317747   0.725354   9.906580  -0.669492   1.276590  -0.647806   0.020336   2.098090  -1.311760   6.542690  -4.813150  -0.632623   2.469710 -72.834800  10.160500   2.049430  -1.366480  -3.078140 -18.050200  12.285000  -3.027310  -2.485200  41.670000  34.963400 -72.569700 -26.335500  -0.000307   0.011311  -8.168990  -0.003556  -0.014477 -26.588000   5.552100 -10.934900 -22.189000   0.009688   0.000202 -15.532300  -0.006398  -0.000326 -27.585700  -0.253448   0.486259 -29.627200  -0.003342   0.000294 -19.731700  -0.002601   0.002687 -27.892400  -0.256027   0.484903 -31.310900   0.000538  -0.000309 -20.853000  -0.001999  -0.008312 -28.719300  -0.263050   0.481123 -43.080600   0.000000  -0.002061 -28.691700  -0.003206   0.002920  10.365100   1.519370   8.814000  67.359800  10.949600  -9.561920  -2.312940  -3.166070  16.093800  -9.676070  -7.171190   6.493470 -51.808400  42.563000  85.362300  21.061700   0.003140  -0.001747   5.530850  -0.002226  -0.000040  44.366200  11.487500  11.506400  37.249800  -0.004171   0.002262  27.190000   0.004581   0.004826  34.843700   4.762920   6.801230  52.690800  -0.003122   0.001364  35.092000  -0.004863   0.007531  33.985800   3.239660   4.791330  51.181900  -0.001524  -0.001518  34.087200  -0.002920   0.006261  45.055100  -2.696220  -2.686660  67.677700   0.000546   0.002462  45.073400  -0.000199  -0.000538   2.394670  11.252000   0.559713   1.503230   0.081303  13.108900  -1.660380  -3.993530   0.798570   0.000000   0.000000  -0.000000   1.540000  10.028200  -0.471298   0.705580   0.376488 -13.679000   0.191701  -3.253540   4.302940  -0.000000   0.000000  -0.000000
  0.010310  89.510900   3.127750  -3.122230  -7.488240  -4.720300   0.332300   4.981380  -0.301656   0.695017   9.960860  -0.636077   1.322700  -0.655867   0.020280   2.173870  -1.327900   6.438760  -4.800040  -0.647773   2.451980 -72.805000  10.183800   2.041560  -1.367590  -3.083910 -18.098600  12.284200  -3.049390  -2.485420  41.675800  34.973900 -72.575600 -26.338000  -0.000295   0.011309  -8.169000  -0.003554  -0.014479 -26.572800   5.545260 -10.934800 -22.175900   0.009684   0.000243 -15.523200  -0.006404  -0.000307 -27.588400  -0.254092   0.486259 -29.649400  -0.003342   0.000290 -19.746500  -0.002600   0.002688 -27.892400  -0.256664   0.484899 -31.332400   0.000538  -0.000311 -20.867400  -0.001998  -0.008315 -28.725500  -0.263690   0.481119 -43.089900   0.000000  -0.002060 -28.697900  -0.003203   0.002922  10.385900   1.453840   8.823940  67.340600  11.028400  -9.583970  -2.290330  -3.188160  16.101900  -9.659440  -7.170780   6.508020 -51.814400  42.609700  85.418800  21.113200   0.003153  -0.001768   5.556610  -0.002261  -0.000113  44.356900  11.487400  11.511000  37.242500  -0.004187   0.002232  27.183000   0.004578   0.004809  34.831100   4.762710   6.801230  52.671600  -0.003047   0.001382  35.079300  -0.004901   0.007498  33.978300   3.239520   4.790970  51.170400  -0.001462  -0.001507  34.079600  -0.002872   0.006212  45.047200  -2.696340  -2.686740  67.666100   0.000637   0.002390  45.065600  -0.000261  -0.000606   2.445750  11.227700   0.559298   1.492550   0.160512  13.126800  -1.692330  -4.033540   0.786612   0.000000   0.000000   0.000000   1.572350  10.034800  -0.480119   0.705000   0.389017 -13.686600   0.182941  -3.250030   4.338960  -0.000000   0.000000   0.000000
 -0.013257  89.510900   3.121330  -3.149830  -7.507020  -4.742910   0.319584   5.008660  -0.288797   0.668489  10.015600  -0.609280   1.375020  -0.664709   0.020191   2.259880  -1.345530   6.337480  -4.789510  -0.664291   2.440440 -72.777200  10.213000   2.034980  -1.364730  -3.093130 -18.140500  12.282900  -3.069280  -2.485420  41.666100  34.983800 -72.588300 -26.355700  -0.000303   0.011308  -8.177310  -0.003562  -0.014482 -26.586600   5.539990 -10.922300 -22.186200   0.009682   0.000311 -15.530400  -0.006415  -0.000283 -27.595800  -0.258372   0.491966 -29.682700  -0.003341   0.000289 -19.768700  -0.002601   0.002685 -27.895800  -0.260960   0.490605 -31.359200   0.000538  -0.000316 -20.885300  -0.001999  -0.008321 -28.736100  -0.268152   0.486751 -43.105800   0.000000  -0.002061 -28.708500  -0.003199   0.002924  10.414300   1.381520   8.848530  67.323800  11.097800  -9.615840  -2.282170  -3.187310  16.114600  -9.654390  -7.150550   6.521630 -51.821200  42.640900  85.435500  21.160800   0.003181  -0.001799   5.580380  -0.002316  -0.000181  44.338700  11.487200  11.518400  37.228200  -0.004218   0.002198  27.169300   0.004571   0.004789  34.824500   4.762440   6.801760  52.661600  -0.002938   0.001408  35.072600  -0.004956   0.007448  33.980200   3.239390   4.790610  51.170600  -0.001371  -0.001487  34.081500  -0.002800   0.006131  45.045100  -2.696450  -2.686820  67.663100   0.000772   0.002286  45.063600  -0.000354  -0.000705   2.495780  11.272500   0.559325   1.482250   0.110178  13.143800  -1.708870  -4.010360   0.780217   0.000000   0.000000  -0.000000   1.609070  10.048300  -0.488045   0.703591   0.390262 -13.697700   0.174723  -3.241960   4.379160   0.000000   0.000000   0.000000
